<svg xmlns="http://www.w3.org/2000/svg" viewBox="0 0 216.4 232" width="24" height="24">
  <path fill="#6364FF" d="M211.8 139.1c-3.2 16.4-28.6 34.3-57.8 37.8-15.2 1.8-30.1 3.5-46.1 2.8-26.2-1.2-46.8-6.2-46.8-6.2 0 2.5.2 4.9.5 7.2 3.8 28.6 28.4 30.3 51.7 31.1 23.5.8 44.5-5.8 44.5-5.8l1 21.7s-16.5 8.8-45.8 10.5c-16.2.9-36.3-.4-59.7-6.7C7.5 214.8.8 161.2.1 106.9c-.1-16.1-.1-31.2-.1-43.9 0-55.3 36.2-71.5 36.2-71.5C54.5-16.7 94.3-18.2 135.6-18.5h1c41.3.3 81.2 1.8 99.5 10 0 0 36.2 16.2 36.2 71.5 0 0 .5 40.8-5.5 76.1"/>
  <path fill="#FFF" d="M177.5 80.5v60.8h-24.1V83c0-12.5-5.3-18.8-15.8-18.8-11.6 0-17.5 7.5-17.5 22.4v32.3H96.1V86.6c0-14.9-5.8-22.4-17.5-22.4-10.5 0-15.8 6.3-15.8 18.8v58.2H38.7V80.5c0-12.5 3.2-22.4 9.5-29.8 6.6-7.4 15.2-11.1 25.8-11.1 12.3 0 21.6 4.7 27.7 14.2l6 10 6-10c6.1-9.5 15.4-14.2 27.7-14.2 10.7 0 19.3 3.8 25.8 11.1 6.4 7.4 9.5 17.3 9.5 29.8"/>
</svg>
