<svg width="293" height="180" viewBox="0 0 293 180" xmlns="http://www.w3.org/2000/svg" xmlns:xlink="http://www.w3.org/1999/xlink" fill="none" overflow="hidden"><path d="M167.628 25.9441 159.028 25.9441 159.028 34.5287 167.628 34.5287 167.628 25.9441Z" fill="#09BAC8"/><path d="M146.29 98.95 129.077 98.95 129.077 107.535 146.29 107.535 146.29 98.95Z" fill="#09BAC8"/><path d="M223.742 98.95 206.529 98.95 206.529 107.535 223.742 107.535 223.742 98.95Z" fill="#09BAC8"/><path d="M283.937 154.612 283.937 103.074 275.367 103.074 275.367 154.612 266.797 154.612 266.797 68.7212 249.54 68.7212 249.54 0 43.0549 0 43.0549 68.7212 25.8125 68.7212 25.8125 154.612 17.2424 154.612 17.2424 103.074 8.57004 103.074 8.57004 154.612 0 154.612 0 171.445 17.2132 171.445 17.2132 180 43.0257 180 43.0257 171.445 51.5957 171.445 51.5957 180 77.4082 180 77.4082 171.445 215.085 171.445 215.085 180 240.897 180 240.897 171.445 249.467 171.445 249.467 180 275.28 180 275.28 171.445 292.493 171.445 292.493 154.612 283.937 154.612ZM193.44 8.76017 236.466 8.76017 236.466 25.9441 223.728 25.9441 223.728 60.312 206.529 60.312 206.529 25.9441 193.455 25.9441 193.455 8.76017 193.44 8.76017ZM55.7784 43.128 55.7784 8.76017 90.2048 8.76017 90.2048 21.469 72.9916 21.469 72.9916 30.0244 90.2048 30.0244 90.2048 43.1134 72.9916 43.1134 72.9916 60.2974 55.7784 60.2974 55.7784 43.128ZM94.6945 98.9503 94.6945 107.506 68.8528 107.506 68.8528 124.69 94.6653 124.69 94.6653 150.458 43.0403 150.458 43.0403 81.7663 94.6653 81.7663 94.6945 98.9503ZM98.8187 60.312 98.8187 8.77478 116.032 8.77478 116.032 43.1427 133.245 43.1427 133.245 60.3266 98.804 60.3266 98.8187 60.3266 98.8187 60.312ZM172.103 98.9503 172.103 150.488 146.29 150.488 146.29 124.719 129.077 124.719 129.077 150.488 103.265 150.488 103.265 90.3656 111.835 90.3656 111.835 81.8102 163.46 81.8102 163.46 90.3656 172.03 90.3656 172.103 98.9503ZM167.628 60.312 167.628 43.128 159.058 43.128 159.058 60.312 141.83 60.312 141.83 17.3594 150.4 17.3594 150.4 8.80404 176.212 8.80404 176.212 17.3594 184.782 17.3594 184.782 60.312 167.628 60.312ZM249.54 98.9503 249.54 124.719 240.97 124.719 240.97 133.274 249.54 133.274 249.54 150.458 223.728 150.458 223.728 133.304 215.158 133.304 215.158 124.748 206.588 124.748 206.588 150.517 180.76 150.517 180.76 81.781 249.555 81.781 249.555 98.9503 249.54 98.9503Z" fill="#09BAC8"/></svg>