<svg width="1241" height="400" viewBox="0 0 1241 400" xmlns="http://www.w3.org/2000/svg" xmlns:xlink="http://www.w3.org/1999/xlink" fill="none" overflow="hidden"><g opacity="0.6"><path d="M831.632 476.889 831.632 398.585 818.489 398.585 818.489 476.889 805.347 476.889 805.347 346.389 778.883 346.389 778.883 241.976 462.229 241.976 462.229 346.389 435.787 346.389 435.787 476.889 422.645 476.889 422.645 398.585 409.368 398.585 409.368 476.889 396.225 476.889 396.225 502.465 422.622 502.465 422.622 515.465 462.207 515.465 462.207 502.465 475.349 502.465 475.349 515.465 514.934 515.465 514.934 502.465 726.065 502.465 726.065 515.465 765.65 515.465 765.65 502.465 778.794 502.465 778.794 515.465 818.378 515.465 818.378 502.465 844.774 502.465 844.774 476.889 831.632 476.889Z" stroke="#03BAC8" stroke-width="2" stroke-miterlimit="10" opacity="0.8"/><path d="M906.045 511.489 906.045 405.586 888.269 405.586 888.269 511.489 870.496 511.489 870.496 334.994 834.704 334.994 834.704 193.781 406.447 193.781 406.447 334.994 370.685 334.994 370.685 511.489 352.911 511.489 352.911 405.586 334.954 405.586 334.954 511.489 317.18 511.489 317.18 546.079 352.88 546.079 352.88 563.66 406.416 563.66 406.416 546.079 424.191 546.079 424.191 563.66 477.727 563.66 477.727 546.079 763.271 546.079 763.271 563.66 816.807 563.66 816.807 546.079 834.583 546.079 834.583 563.66 888.119 563.66 888.119 546.079 923.819 546.079 923.819 511.489 906.045 511.489Z" stroke="#0D97B3" stroke-width="2" stroke-miterlimit="10" opacity="0.8"/><path d="M980.459 546.088 980.459 412.588 958.05 412.588 958.05 546.088 935.644 546.088 935.644 323.6 890.526 323.6 890.526 145.586 350.665 145.586 350.665 323.6 305.584 323.6 305.584 546.088 283.178 546.088 283.178 412.588 260.541 412.588 260.541 546.088 238.135 546.088 238.135 589.693 283.139 589.693 283.139 611.855 350.626 611.855 350.626 589.693 373.033 589.693 373.033 611.855 440.521 611.855 440.521 589.693 800.478 589.693 800.478 611.855 867.965 611.855 867.965 589.693 890.374 589.693 890.374 611.855 957.861 611.855 957.861 589.693 1002.86 589.693 1002.86 546.088 980.459 546.088Z" stroke="#157AA0" stroke-width="2" stroke-miterlimit="10" opacity="0.8"/><path d="M1054.87 580.687 1054.87 419.589 1027.83 419.589 1027.83 580.687 1000.79 580.687 1000.79 312.205 946.348 312.205 946.348 97.3904 294.883 97.3904 294.883 312.205 240.482 312.205 240.482 580.687 213.444 580.687 213.444 419.589 186.128 419.589 186.128 580.687 159.09 580.687 159.09 633.306 213.398 633.306 213.398 660.05 294.837 660.05 294.837 633.306 321.875 633.306 321.875 660.05 403.314 660.05 403.314 633.306 837.684 633.306 837.684 660.05 919.123 660.05 919.123 633.306 946.164 633.306 946.164 660.05 1027.6 660.05 1027.6 633.306 1081.91 633.306 1081.91 580.687 1054.87 580.687Z" stroke="#185F8E" stroke-width="2" stroke-miterlimit="10" opacity="0.8"/><path d="M1129.28 615.287 1129.28 426.591 1097.61 426.591 1097.61 615.287 1065.94 615.287 1065.94 300.81 1002.17 300.81 1002.17 49.1953 239.101 49.1953 239.101 300.81 175.381 300.81 175.381 615.287 143.711 615.287 143.711 426.591 111.716 426.591 111.716 615.287 80.0449 615.287 80.0449 676.92 143.657 676.92 143.657 708.245 239.047 708.245 239.047 676.92 270.717 676.92 270.717 708.245 366.108 708.245 366.108 676.92 874.89 676.92 874.89 708.245 970.281 708.245 970.281 676.92 1001.95 676.92 1001.95 708.245 1097.34 708.245 1097.34 676.92 1160.95 676.92 1160.95 615.287 1129.28 615.287Z" stroke="#19467E" stroke-width="2" stroke-miterlimit="10" opacity="0.8"/><path d="M1203.7 649.886 1203.7 433.592 1167.39 433.592 1167.39 649.886 1131.09 649.886 1131.09 289.415 1057.99 289.415 1057.99 1 183.319 1 183.319 289.415 110.279 289.415 110.279 649.886 73.9773 649.886 73.9773 433.592 37.3026 433.592 37.3026 649.886 1 649.886 1 720.533 73.9154 720.533 73.9154 756.441 183.257 756.441 183.257 720.533 219.559 720.533 219.559 756.441 328.902 756.441 328.902 720.533 912.097 720.533 912.097 756.441 1021.44 756.441 1021.44 720.533 1057.74 720.533 1057.74 756.441 1167.09 756.441 1167.09 720.533 1240 720.533 1240 649.886 1203.7 649.886Z" stroke="#1C2C6F" stroke-width="2" stroke-miterlimit="10" opacity="0.8"/></g></svg>